<?xml version="1.0" encoding="utf-8"?><svg viewBox="0 0 187 112" xmlns="http://www.w3.org/2000/svg" xmlns:xlink="http://www.w3.org/1999/xlink"><style>:root>svg{display:none}:root>svg:target{display:block}</style><svg viewBox="0 0 13 8" id="arrow-down" xmlns="http://www.w3.org/2000/svg"><path fill-rule="evenodd" clip-rule="evenodd" d="M6.657 5.805L11.559.903l.755.754-5.657 5.657L1 1.657l.754-.754 4.903 4.902z" fill="#A65CF0"/></svg><svg fill="none" viewBox="0 0 22 22" id="arrow-right-circle" xmlns="http://www.w3.org/2000/svg"><circle cx="11" cy="11" r="10" stroke="#A65CF0" stroke-width="2"/><path d="M9.625 7.563L13.063 11l-3.438 3.438" stroke="#A65CF0" stroke-width="2" stroke-linecap="round" stroke-linejoin="round"/></svg><svg fill="none" viewBox="0 0 32 32" id="arrow-right-circle-large" xmlns="http://www.w3.org/2000/svg"><circle cx="16" cy="16" r="15" stroke="#A65CF0" stroke-width="2"/><path d="M14 11l5 5-5 5" stroke="#A65CF0" stroke-width="2" stroke-linecap="round" stroke-linejoin="round"/></svg><svg viewBox="0 0 24 24" id="burger" xmlns="http://www.w3.org/2000/svg"><rect width="24" height="3" rx="1.5" fill="#A65CF0"/><rect y="21" width="24" height="3" rx="1.5" fill="#A65CF0"/><rect y="11" width="24" height="3" rx="1.5" fill="#A65CF0"/></svg><svg viewBox="0 0 30 28" id="cart" xmlns="http://www.w3.org/2000/svg"><path d="M28.816 19.85H8.902l1-2.114 16.613-.03c.562 0 1.044-.417 1.144-.994l2.3-13.366a1.24 1.24 0 00-.25-.986 1.177 1.177 0 00-.399-.318 1.135 1.135 0 00-.49-.116L7.684 1.853l-.18-.881C7.39.41 6.901 0 6.346 0H1.18C.867 0 .567.13.346.359A1.25 1.25 0 000 1.225c0 .325.124.637.346.867.221.23.521.358.834.358h4.21l.79 3.895 1.943 9.764-2.502 4.238a1.253 1.253 0 00-.1 1.277c.2.413.605.673 1.054.673h2.1a3.645 3.645 0 00-.69 2.142c0 1.964 1.539 3.561 3.432 3.561s3.43-1.597 3.43-3.561c0-.774-.247-1.527-.688-2.142h5.387a3.645 3.645 0 00-.689 2.142c0 1.964 1.539 3.561 3.431 3.561 1.893 0 3.431-1.597 3.431-3.561 0-.774-.247-1.527-.688-2.142h3.789c.648 0 1.18-.548 1.18-1.225a1.253 1.253 0 00-.35-.864 1.163 1.163 0 00-.834-.358zM8.176 4.27l19.256.065-1.886 10.961-15.126.028L8.176 4.27zm3.24 21.266c-.581 0-1.056-.493-1.056-1.097s.475-1.097 1.057-1.097 1.056.493 1.056 1.097c0 .29-.11.57-.309.775a1.037 1.037 0 01-.747.322zm10.872 0c-.581 0-1.056-.493-1.056-1.097s.475-1.097 1.056-1.097c.582 0 1.057.493 1.057 1.097 0 .29-.111.57-.31.775a1.038 1.038 0 01-.747.322z" fill="#A65CF0"/></svg><svg fill="none" viewBox="0 0 14 14" id="checkbox" xmlns="http://www.w3.org/2000/svg"><path fill="#fff" d="M0 0h14v14H0z"/><rect width="14" height="14" rx="2" fill="#A65CF0"/><path d="M2.8 7l3.17 3.17 5.683-6.384" stroke="#fff" stroke-width="2"/></svg><svg viewBox="0 0 24 24" id="close" xmlns="http://www.w3.org/2000/svg"><rect x="4.575" y="2.954" width="24" height="3" rx="1.5" transform="rotate(45 4.575 2.954)" fill="#A65CF0"/><rect x="21.546" y="5.075" width="24" height="3" rx="1.5" transform="rotate(135 21.546 5.075)" fill="#A65CF0"/></svg><svg viewBox="0 0 161 112" id="elephant" xmlns="http://www.w3.org/2000/svg"><path opacity=".2" fill-rule="evenodd" clip-rule="evenodd" d="M25.58 100.365c20.257 0 24.074-18.09 24.074-32.575h30.094C126.924 67.79 126.936 0 81.252 0 68.827 0 60.823 7.65 58.681 10.316c-25.49 0-28.587 13.527-28.587 39.791v24.076c0 6.175-2.444 10.182-9.03 10.182-5.623 0-8.286-5.057-10.533-12.153-1.17.638-9.39 5.154-10.531 5.894 2.487 7.09 5.15 22.259 25.58 22.259zM54.22 39.79c7.717 0 8.373 11.79-.547 11.79-7.519 0-7.323-11.79.546-11.79zm27.034 35.33c-6.523 0-25.581-1.435-25.581-1.435v36.347l18.056.262 4.514-26.293 57.178-1.091 1.506 28.827 21.065.263S161 55.538 161 44.211c0-21.01-9.255-32.901-30.093-33.895-5.222-.249-12.053-1.238-16.552-1.474 19.611 24.236 4.007 66.278-33.101 66.278zm36.112 14.737l1.503 21.356 12.038.263-1.505-21.62h-12.036zm-37.618 20.701l12.037.262 3.008-20.963H84.26l-4.512 20.701z" fill="#666"/></svg><svg fill="none" viewBox="0 0 30 30" id="instagram" xmlns="http://www.w3.org/2000/svg"><path d="M12.129 15a2.871 2.871 0 105.742 0 2.871 2.871 0 00-5.742 0z" fill="#999"/><path d="M8.286 9.92c.138-.373.358-.712.644-.99.278-.286.616-.506.99-.644.304-.118.76-.258 1.6-.296.908-.042 1.18-.05 3.48-.05s2.573.008 3.48.05c.84.038 1.297.178 1.6.296.374.138.713.358.99.645.286.277.506.616.645.99.118.303.258.76.296 1.6.042.907.05 1.18.05 3.48s-.008 2.572-.05 3.48c-.038.84-.178 1.296-.296 1.6a2.671 2.671 0 01-.645.99 2.667 2.667 0 01-.99.644c-.303.119-.76.259-1.6.297-.907.041-1.18.05-3.48.05s-2.572-.009-3.48-.05c-.84-.038-1.296-.178-1.6-.297a2.852 2.852 0 01-1.634-1.634c-.118-.304-.259-.76-.297-1.6-.041-.908-.05-1.18-.05-3.48s.009-2.572.05-3.48c.038-.84.178-1.297.297-1.6zM15 19.425a4.423 4.423 0 100-8.846 4.423 4.423 0 000 8.846zm-4.598-7.987a1.034 1.034 0 100-2.068 1.034 1.034 0 000 2.068z" fill="#999"/><path d="M15 0c8.283 0 15 6.717 15 15 0 8.283-6.717 15-15 15-8.283 0-15-6.717-15-15C0 6.717 6.717 0 15 0zM6.439 18.551c.041.917.187 1.543.4 2.09a4.404 4.404 0 002.52 2.52c.547.213 1.173.358 2.09.4.918.042 1.212.052 3.55.052 2.34 0 2.633-.01 3.552-.052.917-.042 1.543-.187 2.09-.4a4.22 4.22 0 001.526-.994c.438-.43.777-.95.994-1.525.213-.548.358-1.174.4-2.09.042-.92.052-1.213.052-3.552 0-2.34-.01-2.633-.052-3.551-.041-.917-.187-1.543-.4-2.09a4.22 4.22 0 00-.994-1.526 4.218 4.218 0 00-1.525-.994c-.548-.213-1.174-.358-2.09-.4-.92-.042-1.213-.052-3.552-.052-2.34 0-2.633.01-3.551.052-.917.042-1.543.187-2.09.4a4.222 4.222 0 00-1.527.994 4.22 4.22 0 00-.993 1.525c-.213.548-.359 1.174-.4 2.09-.042.92-.052 1.213-.052 3.552 0 2.34.01 2.633.052 3.551z" fill="#999"/></svg><svg viewBox="0 0 187 27" id="logo" xmlns="http://www.w3.org/2000/svg"><g clip-path="url(#jclip0_702_4083)"><path fill-rule="evenodd" clip-rule="evenodd" d="M5.433 23.452c4.658 0 5.536-4.125 5.536-7.427h6.92c10.847 0 10.85-15.455.345-15.455-2.857 0-4.697 1.744-5.19 2.352-5.86 0-6.573 3.084-6.573 9.072v5.489c0 1.408-.562 2.321-2.076 2.321-1.293 0-1.906-1.153-2.422-2.77-.27.145-2.16 1.174-2.422 1.343.572 1.616 1.184 5.075 5.882 5.075zm6.585-13.81c1.775 0 1.926 2.687-.125 2.687-1.73 0-1.684-2.688.125-2.688zm6.216 8.054c-1.5 0-5.882-.327-5.882-.327v8.287l4.152.06 1.038-5.995 13.148-.249.346 6.572 4.844.06s.691-12.872.691-15.455c0-4.79-2.128-7.5-6.92-7.727-1.2-.057-2.77-.283-3.805-.336 4.509 5.525.921 15.11-7.611 15.11zm8.304 3.36l.346 4.87 2.768.06-.346-4.93h-2.768zm-8.65 4.72l2.768.06.692-4.78h-2.422l-1.038 4.72z" fill="#FF862F"/></g><path d="M54.79 6.078c.988 0 2.013.11 3.076.33 1.063.205 2.057.527 2.984.967l-1.276 3.65c-.395-.131-.82-.241-1.276-.329a13.902 13.902 0 00-2.574-.352c-.394-.03-.751-.044-1.07-.044-.365 0-.623.059-.775.176-.136.103-.205.257-.205.462 0 .205.236.381.706.528.471.132 1.071.278 1.8.44.334.073.699.16 1.093.263.41.103.82.235 1.23.396a7.2 7.2 0 011.208.616c.395.25.744.557 1.047.924.32.366.57.799.752 1.297.183.499.274 1.078.274 1.738 0 .674-.137 1.305-.41 1.891-.259.587-.699 1.1-1.322 1.54-.622.44-1.442.791-2.46 1.055-1.017.25-2.278.374-3.781.374-.395 0-.866-.022-1.412-.066a21.735 21.735 0 01-1.732-.22 23.785 23.785 0 01-1.867-.396 11.199 11.199 0 01-1.8-.616l1.184-3.804c.714.22 1.398.396 2.05.528.669.117 1.276.205 1.823.264.562.058 1.048.095 1.458.11.41.014.721.021.934.021.486 0 .812-.066.98-.198.181-.131.273-.293.273-.483 0-.367-.44-.645-1.322-.836-.91-.22-1.776-.44-2.596-.66a9.26 9.26 0 01-2.164-.857 4.262 4.262 0 01-1.458-1.364c-.365-.557-.547-1.29-.547-2.2 0-.703.114-1.363.342-1.979.243-.63.645-1.18 1.207-1.649.562-.47 1.298-.836 2.21-1.1.926-.278 2.065-.417 3.416-.417zM63.904 21.692c.015-1.833.015-3.658 0-5.476a328.805 328.805 0 010-5.476h5.558a328.805 328.805 0 000 5.476c.015 1.818.015 3.643 0 5.476h-5.558zM69.69 7.507c0 .719-.236 1.312-.706 1.781-.471.47-1.246.704-2.324.704-.531 0-.987-.058-1.367-.176a2.687 2.687 0 01-.934-.528 1.983 1.983 0 01-.5-.791 3.012 3.012 0 01-.16-.99c0-.748.228-1.349.683-1.803.456-.47 1.215-.704 2.278-.704 1.094 0 1.868.235 2.324.704.47.454.706 1.055.706 1.803zM78.051 7.353v3.387h3.053v3.299H78.05v2.485c0 .337.023.608.069.814.06.205.144.359.25.461a.915.915 0 00.456.198c.182.03.402.044.66.044.107 0 .32-.014.638-.044.319-.029.668-.073 1.048-.131l.592 3.452c-.303.117-.63.22-.98.308-.333.073-.675.14-1.024.198a7.753 7.753 0 01-1.003.11c-.319.03-.6.044-.843.044-1.245 0-2.224-.14-2.938-.418-.714-.278-1.253-.623-1.617-1.034-.35-.425-.57-.88-.66-1.363a7.285 7.285 0 01-.138-1.341v-3.783h-1.503v-2.925l1.913-.55c.198-.484.395-.975.593-1.473.197-.499.387-.99.57-1.474l3.917-.264zM83.322 21.692V6.452h7.22c1.58 0 2.878.205 3.896.615 1.032.396 1.845.939 2.437 1.628a5.774 5.774 0 011.23 2.419c.243.923.365 1.898.365 2.925a10.1 10.1 0 01-.41 2.88 6.36 6.36 0 01-1.344 2.442c-.623.704-1.443 1.268-2.46 1.693-1.003.426-2.24.638-3.713.638h-7.221zm5.74-11.546v7.807h1.07c.487 0 .881-.102 1.185-.308.32-.22.562-.505.73-.857.181-.367.303-.785.364-1.254.076-.469.114-.96.114-1.473 0-.528-.038-1.027-.114-1.496a3.725 3.725 0 00-.41-1.253 2.09 2.09 0 00-.775-.836c-.334-.22-.76-.33-1.276-.33h-.888zM113.724 16.194c0 .85-.129 1.628-.388 2.331a4.57 4.57 0 01-1.23 1.826c-.546.498-1.252.887-2.118 1.165-.866.279-1.913.418-3.144.418-1.245 0-2.3-.14-3.166-.418-.865-.278-1.572-.667-2.118-1.165a4.69 4.69 0 01-1.208-1.826c-.243-.703-.364-1.48-.364-2.331 0-.836.121-1.605.364-2.31a4.509 4.509 0 011.208-1.803c.562-.498 1.275-.886 2.141-1.165.866-.279 1.913-.418 3.143-.418 1.231 0 2.278.14 3.144.418.881.278 1.595.667 2.141 1.165.547.499.949 1.1 1.207 1.804.259.704.388 1.473.388 2.309zm-5.695 0c0-.718-.084-1.239-.251-1.561-.167-.338-.478-.506-.934-.506-.455 0-.766.19-.933.572-.168.38-.251.88-.251 1.495 0 .777.083 1.334.251 1.672.167.337.478.505.933.505.456 0 .767-.168.934-.505.167-.338.251-.895.251-1.672zM129.475 17.91l.387-3.145.729-4.003h5.33c-.41 1.847-.843 3.673-1.298 5.476a468.757 468.757 0 00-1.299 5.454h-6.742l-.798-4.024-.387-3.013h-.182l-.342 2.99-.752 4.047h-6.697a262.6 262.6 0 00-1.366-5.432 162.88 162.88 0 01-1.344-5.498h5.444l.729 4.09.387 3.145h.137l.478-3.166.866-4.069h5.239l.843 4.024.478 3.123h.16zM142.787 11.906a7.473 7.473 0 012.118-1.1c.744-.235 1.39-.352 1.936-.352 1.397 0 2.392.352 2.984 1.056.593.689.889 1.715.889 3.079v7.103h-5.581v-6.07c0-.425-.084-.718-.251-.88-.152-.16-.402-.241-.751-.241-.137 0-.312.029-.524.088a2.113 2.113 0 00-.638.307v6.796h-5.604a333.2 333.2 0 000-5.476 335.872 335.872 0 010-5.498h5.148l.114 1.122.16.066zM166.48 11.488c0 .689-.129 1.341-.387 1.957a4.29 4.29 0 01-1.116 1.583c-.501.455-1.116.814-1.845 1.078-.729.264-1.572.396-2.529.396h-1.959v5.19h-5.74V6.452h7.335c1.184 0 2.179.131 2.984.395.805.264 1.443.623 1.913 1.078.486.454.828.99 1.025 1.605.213.616.319 1.269.319 1.958zm-7.836-1.342v2.793h.707c.425 0 .751-.117.979-.352.243-.234.364-.564.364-.99 0-.556-.136-.938-.41-1.143-.273-.205-.63-.308-1.07-.308h-.57zM167.826 21.692c.015-2.668.007-5.322-.023-7.961-.015-2.64-.008-5.293.023-7.961h5.535c.015 2.668.023 5.322.023 7.96v7.962h-5.558zM181.282 10.432c.821 0 1.663.08 2.529.242.866.147 1.686.389 2.46.726l-.957 3.035a11.691 11.691 0 00-1.981-.462 12.668 12.668 0 00-1.709-.132c-.228 0-.387.03-.478.088-.091.059-.137.154-.137.286 0 .073.129.146.387.22.259.058.57.124.934.198.456.073.957.183 1.504.33a5.53 5.53 0 011.526.615c.471.279.858.653 1.162 1.122.319.454.478 1.04.478 1.76 0 .483-.106.938-.319 1.363-.213.425-.577.799-1.093 1.121-.501.308-1.17.558-2.005.748-.835.176-1.868.264-3.098.264a17.446 17.446 0 01-2.528-.198 21.866 21.866 0 01-1.549-.286 11.573 11.573 0 01-1.481-.484l.911-3.166c1.261.351 2.248.564 2.962.637a21.38 21.38 0 001.571.088c.258 0 .471-.014.638-.044.167-.044.251-.124.251-.242a.274.274 0 00-.137-.242 1.024 1.024 0 00-.342-.131 3.384 3.384 0 00-.455-.11 21.77 21.77 0 01-.433-.088 54.717 54.717 0 01-1.663-.418 5.961 5.961 0 01-1.435-.594 3.197 3.197 0 01-1.002-.946c-.258-.396-.388-.909-.388-1.54 0-.512.099-.996.297-1.45.197-.455.524-.851.979-1.188.456-.352 1.056-.623 1.8-.814.759-.205 1.693-.308 2.801-.308z" fill="#A65CF0"/><defs><clipPath id="jclip0_702_4083"><path fill="#fff" transform="matrix(-1 0 0 1 37 0)" d="M0 0h37v27H0z"/></clipPath></defs></svg><svg fill="none" viewBox="0 0 22 22" id="phone" xmlns="http://www.w3.org/2000/svg"><path d="M18.343 14.098a10.49 10.49 0 01-3.236-.513.896.896 0 00-.926.22l-1.44 1.806c-2.593-1.238-5.023-3.575-6.315-6.261l1.787-1.522a.935.935 0 00.22-.935 10.223 10.223 0 01-.513-3.235.916.916 0 00-.907-.908H3.84c-.495 0-1.091.22-1.091.908 0 8.515 7.086 15.592 15.593 15.592.65 0 .907-.578.907-1.082v-3.162a.916.916 0 00-.907-.908z" fill="#FF862F"/></svg><svg viewBox="0 0 20 20" id="search" xmlns="http://www.w3.org/2000/svg"><path d="M17.819 16.063l-3.212-2.747a6.968 6.968 0 001.456-4.285c0-1.88-.734-3.642-2.06-4.97A6.98 6.98 0 009.03 2a6.99 6.99 0 00-4.97 2.06A6.975 6.975 0 002 9.031c0 1.878.734 3.645 2.06 4.971a6.975 6.975 0 004.971 2.06c1.57 0 3.061-.51 4.282-1.453l3.212 2.745a.193.193 0 00.272 0l1.022-1.02a.195.195 0 00.056-.136.193.193 0 00-.056-.136zm-5.075-3.32a5.222 5.222 0 01-3.713 1.538 5.222 5.222 0 01-3.712-1.537A5.222 5.222 0 013.78 9.03c0-1.401.546-2.72 1.538-3.712A5.222 5.222 0 019.03 3.78c1.402 0 2.721.544 3.713 1.538A5.222 5.222 0 0114.28 9.03a5.218 5.218 0 01-1.537 3.713z" fill="#999"/></svg><svg fill="none" viewBox="0 0 16 15" id="star" xmlns="http://www.w3.org/2000/svg"><path d="M15.226 5.282l-4.717-.684L8.4.33a.597.597 0 00-1.066 0L5.225 4.598.51 5.282a.594.594 0 00-.33 1.013l3.413 3.321-.806 4.69a.592.592 0 00.862.625l4.22-2.214 4.218 2.214a.593.593 0 00.862-.625l-.806-4.69 3.413-3.321a.592.592 0 00-.33-1.013z" fill="#FF862F"/></svg><svg viewBox="0 0 32 32" id="submit" xmlns="http://www.w3.org/2000/svg"><g clip-path="url(#nclip0_48079_2213)" stroke="#A65CF0" stroke-width="2"><path d="M14 11l5 5-5 5" stroke-linecap="round" stroke-linejoin="round"/><circle cx="16" cy="16" r="15"/></g><defs><clipPath id="nclip0_48079_2213"><path fill="#fff" d="M0 0h32v32H0z"/></clipPath></defs></svg><svg fill="none" viewBox="0 0 14 14" id="tooltip" xmlns="http://www.w3.org/2000/svg"><path d="M0 7a7 7 0 1114 0A7 7 0 010 7z" fill="#FF862F"/><path d="M7 1.273a5.727 5.727 0 100 11.454A5.727 5.727 0 007 1.273z" fill="#FFF"/><path d="M7.164 4.47a1.273 1.273 0 00-1.415.832.636.636 0 11-1.201-.422 2.545 2.545 0 014.947.848c0 .974-.723 1.617-1.238 1.96a5.12 5.12 0 01-1.073.54l-.022.008-.007.003h-.003c-.001 0-.002.001-.203-.603l.201.604a.636.636 0 01-.403-1.207l.01-.004.048-.017a3.85 3.85 0 00.746-.382c.439-.293.67-.604.67-.903A1.273 1.273 0 007.165 4.47zm.472 5.712a.636.636 0 11-1.272 0 .636.636 0 011.272 0z" fill="#FF862F"/></svg><svg viewBox="0 0 26 28" id="user" xmlns="http://www.w3.org/2000/svg"><path d="M24.98 22.85a13.17 13.17 0 00-2.787-4.203 12.977 12.977 0 00-4.131-2.835l-.042-.018a8.752 8.752 0 003.554-7.07C21.574 3.904 17.737 0 13 0S4.426 3.905 4.426 8.724c0 2.909 1.4 5.487 3.554 7.073-.014.008-.028.011-.042.018a12.864 12.864 0 00-4.131 2.835 13.227 13.227 0 00-2.787 4.204A13.269 13.269 0 000 27.712a.286.286 0 00.079.203.276.276 0 00.198.085H2.35a.278.278 0 00.277-.274 10.576 10.576 0 013.035-7.187c1.96-1.994 4.564-3.092 7.337-3.092 2.773 0 5.376 1.098 7.337 3.092a10.576 10.576 0 013.035 7.187.276.276 0 00.277.274h2.074a.273.273 0 00.198-.085.282.282 0 00.079-.203 13.302 13.302 0 00-1.02-4.862zM13 14.774c-1.587 0-3.08-.63-4.204-1.773a6.064 6.064 0 01-1.743-4.277c0-1.615.62-3.135 1.743-4.278A5.857 5.857 0 0113 2.673c1.587 0 3.08.63 4.204 1.773a6.064 6.064 0 011.743 4.278A6.064 6.064 0 0117.204 13 5.857 5.857 0 0113 14.774z" fill="#A65CF0"/></svg><svg fill="none" viewBox="0 0 30 30" id="vk" xmlns="http://www.w3.org/2000/svg"><path d="M15 0C6.716 0 0 6.716 0 15c0 8.284 6.716 15 15 15 8.284 0 15-6.716 15-15 0-8.284-6.716-15-15-15zm7.609 16.622c.699.683 1.439 1.326 2.066 2.08.278.333.54.677.74 1.065.285.553.027 1.159-.467 1.192l-3.073-.001c-.794.066-1.426-.255-1.958-.797-.425-.433-.82-.894-1.229-1.342a2.871 2.871 0 00-.553-.492c-.42-.272-.783-.189-1.023.249-.245.445-.3.939-.324 1.434-.033.725-.252.914-.979.948-1.554.073-3.028-.163-4.398-.946-1.208-.69-2.144-1.666-2.959-2.77-1.587-2.152-2.803-4.514-3.895-6.944-.246-.547-.066-.84.538-.85a85.522 85.522 0 013.009-.002c.408.007.678.24.835.625.542 1.334 1.206 2.603 2.039 3.78.222.313.448.625.77.846.357.245.628.164.796-.233.107-.253.154-.523.177-.794.08-.927.09-1.854-.049-2.777-.086-.578-.41-.951-.987-1.06-.293-.056-.25-.165-.108-.332.248-.29.48-.47.944-.47h3.472c.547.107.67.353.744.904l.003 3.859c-.006.213.107.845.49.985.307.101.51-.145.693-.34.833-.883 1.426-1.926 1.957-3.005.235-.476.437-.969.634-1.462.146-.365.373-.545.785-.539l3.343.004c.099 0 .199.001.296.018.564.097.718.339.544.889-.275.863-.808 1.583-1.329 2.304-.558.772-1.154 1.517-1.707 2.293-.508.709-.468 1.066.163 1.681z" fill="#999"/></svg></svg>