<svg width="32" height="23" viewBox="0 0 32 23" fill="none" xmlns="http://www.w3.org/2000/svg"><path fill-rule="evenodd" clip-rule="evenodd" d="M5.084 19.973c4.026 0 4.785-3.546 4.785-6.386h5.982c9.376 0 9.379-13.29.298-13.29-2.47 0-4.06 1.5-4.486 2.023-5.066 0-5.682 2.652-5.682 7.8v4.72c0 1.211-.485 1.997-1.794 1.997-1.118 0-1.647-.992-2.094-2.383C1.86 14.58.227 15.464 0 15.61c.494 1.39 1.024 4.363 5.084 4.363zm5.693-11.875c1.533 0 1.664 2.311-.109 2.311-1.494 0-1.456-2.31.109-2.31zm5.373 6.926c-1.297 0-5.085-.281-5.085-.281v7.126l3.59.05.896-5.154 11.365-.213.3 5.65 4.186.052S32 11.185 32 8.965c0-4.118-1.84-6.45-5.981-6.644-1.038-.049-2.396-.243-3.29-.29 3.898 4.752.796 12.994-6.58 12.994zm7.177 2.89l.3 4.186 2.392.052-.3-4.239h-2.392zm-7.477 4.058l2.393.051.598-4.11h-2.094l-.896 4.059z" fill="#FF862F"/></svg>